<?xml version="1.0" standalone="no"?>
<!DOCTYPE svg PUBLIC "-//W3C//DTD SVG 20010904//EN"
 "http://www.w3.org/TR/2001/REC-SVG-20010904/DTD/svg10.dtd">
<svg version="1.0" xmlns="http://www.w3.org/2000/svg"
 width="512.000000pt" height="512.000000pt" viewBox="0 0 512.000000 512.000000"
 preserveAspectRatio="xMidYMid meet">

<g transform="translate(0.000000,512.000000) scale(0.100000,-0.100000)"
fill="#000000" stroke="none">
<path d="M2330 4853 c-942 -101 -1724 -756 -1985 -1663 -65 -224 -80 -344 -80
-630 0 -223 3 -271 24 -385 58 -328 183 -638 361 -899 358 -526 898 -876 1520
-986 156 -28 476 -38 631 -21 940 107 1714 757 1973 1658 66 228 81 346 81
633 0 223 -3 271 -24 385 -181 1011 -971 1767 -1984 1900 -108 14 -417 19
-517 8z m491 -278 c773 -102 1420 -634 1663 -1365 172 -517 134 -1078 -104
-1552 -107 -213 -216 -364 -385 -534 -552 -556 -1378 -741 -2122 -476 -278
100 -532 261 -749 477 -490 486 -698 1197 -548 1873 185 832 868 1461 1713
1577 130 17 402 18 532 0z"/>
<path d="M2408 4310 c-331 -60 -606 -291 -713 -598 -114 -327 -39 -689 194
-936 446 -471 1220 -352 1498 230 245 514 -25 1118 -572 1279 -73 22 -115 28
-225 30 -74 2 -156 0 -182 -5z"/>
<path d="M1785 2304 c-325 -70 -613 -308 -747 -617 -21 -48 -38 -96 -38 -106
0 -52 226 -318 378 -444 681 -567 1668 -570 2358 -6 151 123 395 412 386 456
-9 43 -83 196 -127 263 -60 91 -198 232 -282 289 -90 60 -208 116 -309 148
l-89 28 -730 2 c-617 1 -741 -1 -800 -13z"/>
</g>
</svg>
