<svg xmlns="http://www.w3.org/2000/svg" xmlns:xlink="http://www.w3.org/1999/xlink" width="500" zoomAndPan="magnify" viewBox="0 0 375 374.999991" height="500" preserveAspectRatio="xMidYMid meet" version="1.0"><defs><g/><clipPath id="f97ca27138"><path d="M 68.59375 168.355469 L 106.84375 168.355469 L 106.84375 206.605469 L 68.59375 206.605469 Z M 68.59375 168.355469 " clip-rule="nonzero"/></clipPath></defs><g clip-path="url(#f97ca27138)"><path fill="#ffffff" d="M 76.226562 199.722656 L 76.660156 200.152344 L 76.703125 200.195312 C 78.050781 201.589844 78.035156 203.839844 76.660156 205.214844 C 75.285156 206.59375 73.039062 206.605469 71.644531 205.257812 L 71.597656 205.214844 L 71.167969 204.785156 L 69.988281 203.601562 C 68.597656 202.210938 68.597656 199.933594 69.988281 198.539062 C 71.378906 197.144531 73.660156 197.144531 75.050781 198.539062 Z M 100.101562 180.128906 L 100.519531 179.707031 L 105.414062 174.8125 C 106.804688 173.421875 106.804688 171.144531 105.414062 169.746094 C 104.019531 168.355469 101.742188 168.355469 100.351562 169.746094 L 95.941406 174.164062 L 95.460938 174.644531 L 95.039062 175.0625 L 92.507812 177.59375 C 91.121094 178.988281 91.121094 181.265625 92.507812 182.660156 L 95.039062 185.191406 L 95.492188 185.640625 L 100.386719 190.535156 C 101.777344 191.925781 104.050781 191.925781 105.449219 190.535156 C 106.839844 189.144531 106.839844 186.863281 105.449219 185.472656 L 100.554688 180.574219 Z M 70.191406 169.78125 L 70.191406 169.777344 C 71.582031 168.386719 73.859375 168.386719 75.25 169.777344 L 105.378906 199.929688 C 106.777344 201.320312 106.777344 203.601562 105.378906 204.992188 C 103.988281 206.386719 101.714844 206.386719 100.320312 204.992188 L 70.191406 174.839844 C 68.800781 173.449219 68.800781 171.171875 70.191406 169.78125 Z M 70.144531 184.214844 C 71.535156 182.824219 73.8125 182.824219 75.207031 184.214844 L 78.636719 187.648438 L 86.0625 195.078125 L 90.957031 199.972656 C 92.347656 201.363281 92.347656 203.644531 90.957031 205.035156 C 89.558594 206.429688 87.285156 206.429688 85.894531 205.035156 L 81 200.140625 L 73.578125 192.710938 L 70.144531 189.28125 C 68.753906 187.886719 68.753906 185.605469 70.144531 184.214844 Z M 70.144531 184.214844 " fill-opacity="1" fill-rule="evenodd"/></g><g fill="#ffffff" fill-opacity="1"><g transform="translate(130.222889, 196.856837)"><g><path d="M 11.875 0.375 C 9.8125 0.375 8 -0.101562 6.4375 -1.0625 C 4.875 -2.019531 3.65625 -3.359375 2.78125 -5.078125 C 1.914062 -6.804688 1.484375 -8.800781 1.484375 -11.0625 C 1.484375 -13.320312 1.921875 -15.316406 2.796875 -17.046875 C 3.679688 -18.773438 4.929688 -20.125 6.546875 -21.09375 C 8.160156 -22.070312 10.066406 -22.5625 12.265625 -22.5625 C 14.753906 -22.5625 16.828125 -21.957031 18.484375 -20.75 C 20.148438 -19.550781 21.222656 -17.894531 21.703125 -15.78125 L 18.625 -15.78125 C 18.332031 -17.113281 17.628906 -18.171875 16.515625 -18.953125 C 15.410156 -19.734375 13.992188 -20.125 12.265625 -20.125 C 10.640625 -20.125 9.222656 -19.757812 8.015625 -19.03125 C 6.804688 -18.300781 5.867188 -17.257812 5.203125 -15.90625 C 4.546875 -14.550781 4.21875 -12.9375 4.21875 -11.0625 C 4.21875 -9.175781 4.539062 -7.554688 5.1875 -6.203125 C 5.84375 -4.859375 6.753906 -3.820312 7.921875 -3.09375 C 9.085938 -2.363281 10.441406 -2 11.984375 -2 C 14.347656 -2 16.128906 -2.6875 17.328125 -4.0625 C 18.535156 -5.445312 19.222656 -7.347656 19.390625 -9.765625 L 12.984375 -9.765625 L 12.984375 -11.84375 L 22.125 -11.84375 L 22.125 0 L 19.671875 0 L 19.453125 -3.640625 C 18.648438 -2.359375 17.664062 -1.367188 16.5 -0.671875 C 15.34375 0.0234375 13.800781 0.375 11.875 0.375 Z M 11.875 0.375 "/></g></g></g><g fill="#ffffff" fill-opacity="1"><g transform="translate(159.112537, 196.856837)"><g><path d="M 2.34375 0 L 2.34375 -22.1875 L 5 -22.1875 L 5 0 Z M 2.34375 0 "/></g></g></g><g fill="#ffffff" fill-opacity="1"><g transform="translate(171.373411, 196.856837)"><g><path d="M 7.546875 0 L 7.546875 -20 L 0.921875 -20 L 0.921875 -22.1875 L 16.828125 -22.1875 L 16.828125 -20 L 10.203125 -20 L 10.203125 0 Z M 7.546875 0 "/></g></g></g><g fill="#ffffff" fill-opacity="1"><g transform="translate(194.023306, 196.856837)"><g><path d="M 12.078125 0.375 C 9.898438 0.375 8.023438 -0.101562 6.453125 -1.0625 C 4.878906 -2.019531 3.65625 -3.359375 2.78125 -5.078125 C 1.914062 -6.804688 1.484375 -8.8125 1.484375 -11.09375 C 1.484375 -13.351562 1.914062 -15.34375 2.78125 -17.0625 C 3.65625 -18.78125 4.878906 -20.125 6.453125 -21.09375 C 8.023438 -22.070312 9.898438 -22.5625 12.078125 -22.5625 C 14.609375 -22.5625 16.671875 -21.953125 18.265625 -20.734375 C 19.859375 -19.523438 20.878906 -17.832031 21.328125 -15.65625 L 18.375 -15.65625 C 18.039062 -17.03125 17.347656 -18.132812 16.296875 -18.96875 C 15.253906 -19.800781 13.847656 -20.21875 12.078125 -20.21875 C 10.492188 -20.21875 9.109375 -19.851562 7.921875 -19.125 C 6.734375 -18.394531 5.816406 -17.347656 5.171875 -15.984375 C 4.535156 -14.617188 4.21875 -12.988281 4.21875 -11.09375 C 4.21875 -9.1875 4.535156 -7.550781 5.171875 -6.1875 C 5.816406 -4.832031 6.734375 -3.789062 7.921875 -3.0625 C 9.109375 -2.332031 10.492188 -1.96875 12.078125 -1.96875 C 13.847656 -1.96875 15.253906 -2.375 16.296875 -3.1875 C 17.347656 -4 18.039062 -5.082031 18.375 -6.4375 L 21.328125 -6.4375 C 20.878906 -4.300781 19.859375 -2.628906 18.265625 -1.421875 C 16.671875 -0.222656 14.609375 0.375 12.078125 0.375 Z M 12.078125 0.375 "/></g></g></g><g fill="#ffffff" fill-opacity="1"><g transform="translate(221.741027, 196.856837)"><g><path d="M 12.421875 0.375 C 10.242188 0.375 8.335938 -0.101562 6.703125 -1.0625 C 5.066406 -2.019531 3.785156 -3.363281 2.859375 -5.09375 C 1.941406 -6.832031 1.484375 -8.832031 1.484375 -11.09375 C 1.484375 -13.351562 1.941406 -15.34375 2.859375 -17.0625 C 3.785156 -18.78125 5.066406 -20.125 6.703125 -21.09375 C 8.335938 -22.070312 10.242188 -22.5625 12.421875 -22.5625 C 14.617188 -22.5625 16.535156 -22.070312 18.171875 -21.09375 C 19.804688 -20.125 21.078125 -18.78125 21.984375 -17.0625 C 22.898438 -15.34375 23.359375 -13.351562 23.359375 -11.09375 C 23.359375 -8.832031 22.898438 -6.832031 21.984375 -5.09375 C 21.078125 -3.363281 19.804688 -2.019531 18.171875 -1.0625 C 16.535156 -0.101562 14.617188 0.375 12.421875 0.375 Z M 12.421875 -1.96875 C 14.046875 -1.96875 15.472656 -2.332031 16.703125 -3.0625 C 17.941406 -3.789062 18.90625 -4.832031 19.59375 -6.1875 C 20.28125 -7.550781 20.625 -9.1875 20.625 -11.09375 C 20.625 -12.988281 20.28125 -14.613281 19.59375 -15.96875 C 18.90625 -17.320312 17.941406 -18.363281 16.703125 -19.09375 C 15.472656 -19.820312 14.046875 -20.1875 12.421875 -20.1875 C 10.796875 -20.1875 9.363281 -19.820312 8.125 -19.09375 C 6.894531 -18.363281 5.9375 -17.320312 5.25 -15.96875 C 4.5625 -14.613281 4.21875 -12.988281 4.21875 -11.09375 C 4.21875 -9.1875 4.5625 -7.550781 5.25 -6.1875 C 5.9375 -4.832031 6.894531 -3.789062 8.125 -3.0625 C 9.363281 -2.332031 10.796875 -1.96875 12.421875 -1.96875 Z M 12.421875 -1.96875 "/></g></g></g><g fill="#ffffff" fill-opacity="1"><g transform="translate(251.485876, 196.856837)"><g><path d="M 2.34375 0 L 2.34375 -22.1875 L 9.15625 -22.1875 C 13.0625 -22.1875 15.9375 -21.191406 17.78125 -19.203125 C 19.632812 -17.210938 20.5625 -14.488281 20.5625 -11.03125 C 20.5625 -7.625 19.632812 -4.929688 17.78125 -2.953125 C 15.9375 -0.984375 13.0625 0 9.15625 0 Z M 5 -2.21875 L 9.09375 -2.21875 C 11.25 -2.21875 12.960938 -2.570312 14.234375 -3.28125 C 15.515625 -3.988281 16.429688 -5 16.984375 -6.3125 C 17.535156 -7.632812 17.8125 -9.207031 17.8125 -11.03125 C 17.8125 -12.882812 17.535156 -14.476562 16.984375 -15.8125 C 16.429688 -17.144531 15.515625 -18.171875 14.234375 -18.890625 C 12.960938 -19.609375 11.25 -19.96875 9.09375 -19.96875 L 5 -19.96875 Z M 5 -2.21875 "/></g></g></g><g fill="#ffffff" fill-opacity="1"><g transform="translate(278.443426, 196.856837)"><g><path d="M 2.34375 0 L 2.34375 -22.1875 L 16.0625 -22.1875 L 16.0625 -20 L 5 -20 L 5 -12.265625 L 15.109375 -12.265625 L 15.109375 -10.109375 L 5 -10.109375 L 5 -2.1875 L 16.0625 -2.1875 L 16.0625 0 Z M 2.34375 0 "/></g></g></g></svg>